<?xml version="1.0" encoding="utf-8"?>
<!-- Generator: Adobe Illustrator 27.5.0, SVG Export Plug-In . SVG Version: 6.00 Build 0)  -->
<svg version="1.1" xmlns="http://www.w3.org/2000/svg" xmlns:xlink="http://www.w3.org/1999/xlink" x="0px" y="0px"
	 viewBox="0 0 500 500" style="enable-background:new 0 0 500 500;" xml:space="preserve">
<g id="BACKGROUND">
	<rect style="fill:#CCC9C2;" width="500" height="500"/>
</g>
<g id="OBJECTS">
	<g>
		
			<rect x="360.31" y="235.117" transform="matrix(-1 -1.224647e-16 1.224647e-16 -1 774.7285 627.4244)" style="fill:#5B3C39;" width="54.109" height="157.191"/>
		
			<rect x="249.095" y="235.117" transform="matrix(-1 -1.224647e-16 1.224647e-16 -1 609.4049 627.4244)" style="fill:#6D4641;" width="111.215" height="157.191"/>
		
			<rect x="249.095" y="235.117" transform="matrix(-1 -1.224647e-16 1.224647e-16 -1 609.4049 473.1378)" style="fill:#3E2F2A;" width="111.215" height="2.905"/>
		<path style="fill:#3E2F2A;" d="M298.375,246.75h12.655c6.388,0,11.566-5.178,11.566-11.566l0,0h-35.786l0,0
			C286.809,241.572,291.988,246.75,298.375,246.75z"/>
		
			<rect x="249.095" y="287.126" transform="matrix(-1 -1.224647e-16 1.224647e-16 -1 609.4049 577.1572)" style="fill:#3E2F2A;" width="111.215" height="2.905"/>
		<path style="fill:#3E2F2A;" d="M298.375,298.76h12.655c6.388,0,11.566-5.178,11.566-11.566l0,0h-35.786l0,0
			C286.809,293.582,291.988,298.76,298.375,298.76z"/>
		
			<rect x="249.095" y="342.541" transform="matrix(-1 -1.224647e-16 1.224647e-16 -1 609.4049 687.9859)" style="fill:#3E2F2A;" width="111.215" height="2.905"/>
		<path style="fill:#3E2F2A;" d="M298.375,354.174h12.655c6.388,0,11.566-5.178,11.566-11.566l0,0h-35.786l0,0
			C286.809,348.996,291.988,354.174,298.375,354.174z"/>
		
			<rect x="360.31" y="227.492" transform="matrix(-1 -1.224647e-16 1.224647e-16 -1 774.7285 462.6087)" style="fill:#988D79;" width="54.109" height="7.624"/>
		
			<rect x="249.095" y="227.492" transform="matrix(-1 -1.224647e-16 1.224647e-16 -1 609.4049 462.6087)" style="fill:#B1A493;" width="111.215" height="7.624"/>
		
			<rect x="360.31" y="392.308" transform="matrix(-1 -1.224647e-16 1.224647e-16 -1 774.7285 790.2619)" style="fill:#272823;" width="54.109" height="5.646"/>
		
			<rect x="249.095" y="392.308" transform="matrix(-1 -1.224647e-16 1.224647e-16 -1 609.4049 790.2619)" style="fill:#35362E;" width="111.215" height="5.646"/>
	</g>
	
		<line style="fill:none;stroke:#1B1E2E;stroke-width:0.5;stroke-miterlimit:10;" x1="50.748" y1="397.678" x2="449.252" y2="397.678"/>
	<g>
		<g>
			<line style="fill:none;stroke:#1B1E2E;stroke-miterlimit:10;" x1="125.703" y1="344.583" x2="206.879" y2="336.131"/>
			<line style="fill:none;stroke:#1B1E2E;stroke-miterlimit:10;" x1="202.677" y1="358.831" x2="129.905" y2="321.883"/>
			<line style="fill:none;stroke:#1B1E2E;stroke-miterlimit:10;" x1="204.434" y1="360.639" x2="277.99" y2="325.278"/>
			<line style="fill:none;stroke:#1B1E2E;stroke-miterlimit:10;" x1="281.699" y1="348.065" x2="200.726" y2="337.853"/>
			<path style="fill:#292F47;" d="M97.765,397.201L97.765,397.201c-2.079-1.061-2.954-3.571-1.984-5.694l42.77-93.674l15.729,8.025
				l-50.739,89.608C102.389,397.496,99.844,398.261,97.765,397.201z"/>
			<path style="fill:#292F47;" d="M205.779,414.189L205.779,414.189c2.33-0.105,4.162-2.03,4.15-4.363l-0.574-111.994l-17.64,0.792
				l9.54,111.594C201.454,412.541,203.451,414.293,205.779,414.189z"/>
			<path style="fill:#292F47;" d="M311.948,397.202L311.948,397.202c2.078-1.06,2.948-3.571,1.971-5.689l-46.896-101.704
				l-15.729,8.025l54.892,97.628C307.329,397.493,309.871,398.262,311.948,397.202z"/>
		</g>
		<g>
			<path style="fill:#F2F2D6;" d="M85.587,229.121l2.18-64.571c0.508-15.038,12.846-26.967,27.893-26.967h35.503
				c9.633,0,18.584,4.967,23.681,13.141l37.982,60.908c5.499,8.819,15.451,13.842,25.812,13.029l27.806-2.181
				c18.072-1.417,34.519,10.439,38.887,28.032l4.331,17.443c3.162,12.737-5.642,25.336-18.69,26.745l-81.115,8.759l-9.242-40.33
				c-4.106-17.917-20.718-30.121-39.043-28.684l-65.081,5.104C90.473,240.022,85.383,235.154,85.587,229.121z"/>
			<linearGradient id="SVGID_1_" gradientUnits="userSpaceOnUse" x1="193.5066" y1="218.7683" x2="179.6008" y2="117.951">
				<stop  offset="0" style="stop-color:#F2F2D6;stop-opacity:0"/>
				<stop  offset="0.4091" style="stop-color:#E7E7CD;stop-opacity:0.4149"/>
				<stop  offset="0.986" style="stop-color:#D1D1BA"/>
			</linearGradient>
			<path style="fill:url(#SVGID_1_);" d="M164.421,225.546c21.1,0,39.984,14.785,44.76,35.619l7.497,32.719l73.349-7.921
				c3.75-0.405,7.005-2.329,9.165-5.421c2.16-3.091,2.849-6.809,1.941-10.469l-4.331-17.443
				c-3.347-13.481-15.846-22.488-29.669-21.388l-27.807,2.18c-13.689,1.074-26.693-5.493-33.956-17.139l-37.981-60.908
				c-3.516-5.638-9.581-9.004-16.226-9.004H115.66c-10.366,0-18.76,8.115-19.109,18.475l-2.181,64.572
				c-0.017,0.492,0.215,0.819,0.411,1.007c0.196,0.188,0.541,0.395,1.022,0.365l65.082-5.105
				C162.069,225.591,163.249,225.546,164.421,225.546z"/>
		</g>
		<g>
			<polygon style="fill:#5E3908;" points="129.66,169.866 104.984,178.404 152.11,250.653 211.978,242.607 175.008,169.086 			"/>
			<polygon style="fill:#362105;" points="119.901,173.242 154.121,199.076 152.678,204.139 115.52,174.758 			"/>
			<polygon style="fill:#472B06;" points="162.611,169.299 151.936,206.739 156.344,208.202 167.189,169.299 			"/>
			<polygon style="fill:#FEB159;" points="119.901,173.242 154.121,199.076 162.611,169.299 129.66,169.866 			"/>
			<path style="fill:#FEB159;" d="M175.008,169.086c11.423-1.822,14.103,4.517,25.825,33.404l-9.436,4.249L175.008,169.086z"/>
			<polygon style="fill:#CEDAE0;" points="216.229,190.323 173.187,178.025 164.082,245.449 209.857,258.771 			"/>
			<polygon style="fill:#CEDAE0;" points="216.229,190.323 226.327,171.947 226.327,246.774 209.857,258.771 			"/>
			<path style="fill:#FEB159;" d="M104.984,178.404c-7.763,2.264-4.521,27.107,16.884,56.865c0,0,0.993-9.56,9.914-15.781
				C131.782,219.487,116.905,174.927,104.984,178.404z"/>
			<polygon style="fill:#FFFFFF;" points="166.39,183.193 216.229,190.323 209.857,258.771 160.429,251.717 			"/>
			<polygon style="fill:#DEEBF2;" points="169.604,190.915 167.189,217.439 209.857,221.207 211.978,195.538 			"/>
			<polygon style="fill:#F5F5F5;" points="216.229,190.323 232.618,173.603 230.632,248.011 209.857,258.771 			"/>
			<g>
				<g>
					<polygon style="fill:#E0764E;" points="322.35,336.242 343.893,361.717 352.081,355.992 330.903,328.369 					"/>
					<g>
						<path style="fill:#581830;" d="M351.026,374.339c0,0-4.877-5.394-7.132-12.621l8.187-5.725c0,0,11.729,2.864,20.924-4.029
							c5.551-4.162,7.433,1.913,7.433,1.913L351.026,374.339z"/>
						<polygon style="fill:#FFFFFF;" points="351.026,374.339 380.438,353.877 382.187,356.378 352.775,376.84 						"/>
						<path style="fill:none;stroke:#421225;stroke-width:0.5;stroke-miterlimit:10;" d="M346.798,368.292
							c0,0,6.966-4.292,9.984,2.021"/>
						<path style="fill:none;stroke:#421225;stroke-width:0.5;stroke-miterlimit:10;" d="M349.621,357.712
							c0,0,13.567,4.901,14.407-1.752"/>
					</g>
				</g>
				<g>
					<g>
						<path style="fill:#66CEFF;" d="M152.11,250.653l6.916,18.729c3.87,10.481,13.86,17.442,25.034,17.442l84.447-2.794
							l64.816,68.802l13.339-10.094l-60.263-92.784c-6.264-9.832-17.707-15.082-29.245-13.418L152.11,250.653z"/>
						
							<line style="fill:none;stroke:#1B374F;stroke-width:0.5;stroke-miterlimit:10;" x1="340.148" y1="347.667" x2="262.036" y2="256.614"/>
						<path style="fill:none;stroke:#1B374F;stroke-width:0.5;stroke-miterlimit:10;" d="M241.212,253.079l-42.499,13.184
							c-11.046,3.427-22.791-2.686-26.321-13.7l-1.649-5.145"/>
					</g>
					<polygon style="fill:#91DBFF;" points="333.323,352.832 350.741,339.651 345.827,332.208 327.544,346.699 					"/>
				</g>
			</g>
			<path style="fill:#E0764E;" d="M165.129,197.691v2.731l11.245-0.538c0,0,2.525,1.573-2.111,3.104c0,0,0.745,1.117,0.497,1.987
				c-0.248,0.869-0.869,0.869-0.869,0.869s1.241,0.05,1.495,0.654c0.518,1.23,0.036,3.609-11.605,6.689
				c0,0-25.943,31.023-31.072,31.271c-5.129,0.248-6.293-0.104-8.567-4.646c-2.274-4.542,0.886-14.429,7.64-17.455l28.455-15.617
				c0,0,0.164-3.063,0.658-4.332C161.847,199.966,165.129,197.691,165.129,197.691z"/>
			<path style="fill:#FEBB70;" d="M133.16,221.6c0,0,3.135-1.554,1.738-3.921c-0.913-1.546-2.434-1.159-2.434-1.159
				s0.535-1.797-0.952-2.235c-1.407-0.414-5.556,1.418-7.16,3.187c-3.642,4.014-7.272,9.827-7.574,13.533
				c-0.302,3.707,2.607,3.887,2.607,3.887s-0.993,1.821-0.331,2.98c0.662,1.159,5.088,1.939,5.088,1.939
				S124.863,226.098,133.16,221.6z"/>
			<path style="fill:#E0764E;" d="M232.006,196.531c0,0-3.734-0.621-4.975-0.993c-1.242-0.373-1.738,1.45,0,2.153
				c0,0-1.505,0.951-1.125,1.944c0.38,0.993,1.249,0.745,1.249,0.993c0,0.248-1.242,0.993-0.745,2.111
				c0.497,1.117,5.367,2.357,5.367,2.357l-0.156,5.841c0,0,4.225-5.715,4.597-9.812c0.372-4.097-0.409-5.215-1.384-6.332
				s-2.749-1.246-2.749-1.246L232.006,196.531z"/>
			<path style="fill:#FFFFFF;" d="M132.943,162.097c-3.242,0.499-4.784,3.394-4.37,6.701c0.329,2.632,5.461,8.648,11.504,9.853
				l2.815-6.705l4.888,5.298c0,0,7.734-3.145,7.693-9.436c-0.022-3.345-0.474-6.113-5.389-6.012
				C145.369,161.894,137.395,161.411,132.943,162.097z"/>
			<g>
				<g>
					<path style="fill:#4C1E2B;" d="M133.346,155.152c-3.75,0-7.819-3.661-7.883-7.411c-0.169-9.779-0.176-27.069,0.131-30.442
						c0.497-5.466,8.319-4.721,8.319-4.721s0.698-5.044,12.951-4.547c12.253,0.497,21.937-2.731,21.937-2.731
						s0.745,4.966-3.973,7.946l5.96-0.993c0,0,1.986,10.507-8.939,10.382l6.953,5.51c0,0-1.242,12.251-32.715,2.236l-0.684,24.771
						H133.346z"/>
					<path style="fill:#E0764E;" d="M133.41,151.743l-0.714,15.817c0,0,9.816,5.544,17.388-0.284v-15.532H133.41z"/>
					<polygon style="fill:#BF582F;" points="150.084,151.743 150.084,166.664 140.077,157.867 					"/>
					<path style="fill:#E0764E;" d="M160.429,125.517l-0.379,23.802c-0.076,4.743-3.942,8.548-8.685,8.548h-18.067l0.599-32.35
						H160.429z"/>
					<path style="fill:#4C1E2B;" d="M133.297,139.657c0,0,11.542,5.111,4.722-11.559c0,0,6.256,2.98,10.697,3.228
						c4.441,0.248,3.914-2.731,3.914-2.731s5.865,2.89,8.597,1.631c2.732-1.259,0.993-6.597-4.346-9.205
						c-5.339-2.607-23.963-1.862-24.956,2.483C130.932,127.85,133.297,139.657,133.297,139.657z"/>
					<g>
						<g>
							<g>
								<path style="fill:#E0764E;" d="M136.085,144.126c0.014,2.632-2.096,4.658-4.715,4.525c-2.618-0.133-4.752-2.375-4.766-5.007
									c-0.014-2.632,2.097-4.658,4.715-4.525C133.937,139.252,136.071,141.494,136.085,144.126z"/>
							</g>
						</g>
					</g>
					<path style="fill:#4C1E2B;" d="M153.103,135.922c-0.039,0.715,2.917,1.446,4.686,1.536c1.769,0.09,2.409-0.459,2.448-1.174
						c0.038-0.715-2.092-1.405-3.861-1.494C154.607,134.7,153.142,135.207,153.103,135.922z"/>
					<path style="fill:#2C1817;" d="M153.248,140.748c-0.053,1.013,0.294,1.855,0.777,1.88c0.482,0.025,0.917-0.775,0.97-1.789
						c0.053-1.013-0.295-1.855-0.777-1.881C153.735,138.933,153.301,139.734,153.248,140.748z"/>
					<path style="fill:#4C1E2B;" d="M148.406,135.717c-0.038,0.715-3.057,1.143-4.825,1.053c-1.769-0.09-2.347-0.7-2.308-1.415
						c0.039-0.715,2.232-1.185,4.001-1.095C147.042,134.35,148.444,135.002,148.406,135.717z"/>
					<path style="fill:#2C1817;" d="M147.775,140.485c-0.053,1.013-0.488,1.814-0.97,1.789c-0.482-0.025-0.83-0.867-0.777-1.881
						c0.053-1.013,0.488-1.814,0.97-1.789C147.481,138.63,147.829,139.472,147.775,140.485z"/>
					
						<polyline style="fill:none;stroke:#BF582F;stroke-width:0.5;stroke-linecap:round;stroke-linejoin:round;stroke-miterlimit:10;" points="
						150.764,138.644 152.181,147.741 149.477,147.741 					"/>
					<path style="fill:none;stroke:#BF582F;stroke-width:0.5;stroke-miterlimit:10;" d="M132.544,145.842
						c0.37-0.841,0.214-1.888-0.386-2.584c-0.599-0.696-1.612-1.007-2.499-0.766"/>
					<path style="fill:#FFFFFF;" d="M152.386,150.176h-8.273c0,0,0.565,4.555,4.136,4.555
						C152.181,154.73,152.386,150.176,152.386,150.176z"/>
				</g>
			</g>
			<g>
				<g>
					<polygon style="fill:#E0764E;" points="238.055,356.255 232.859,389.211 242.543,391.665 249.604,357.581 					"/>
					<g>
						<path style="fill:#581830;" d="M227.97,402.859c0,0,0.894-7.217,4.889-13.648l9.684,2.454c0,0,5.499,10.748,16.727,13.201
							c6.778,1.48,3.411,6.876,3.411,6.876L227.97,402.859z"/>
						<polygon style="fill:#FFFFFF;" points="227.97,402.859 262.681,411.741 261.931,414.7 227.22,405.818 						"/>
						<path style="fill:none;stroke:#421225;stroke-width:0.5;stroke-miterlimit:10;" d="M229.782,395.707
							c0,0,7.802,2.466,4.997,8.877"/>
						<path style="fill:none;stroke:#421225;stroke-width:0.5;stroke-miterlimit:10;" d="M239.634,390.927
							c0,0,5.16,13.471,10.743,9.758"/>
					</g>
				</g>
				<g>
					<g>
						<path style="fill:#5DBCE8;" d="M205.17,286.125l46.316-42.711h0c12.989,3.924,21.031,16.897,18.768,30.275l-20.805,108.341
							l-17.098-3.196l11.259-93.982L205.17,286.125z"/>
						<path style="fill:none;stroke:#1B374F;stroke-width:0.5;stroke-miterlimit:10;" d="M234.835,258.771l11.545,4.242
							c7.336,2.695,11.728,10.216,10.471,17.929l-16.204,99.444"/>
					</g>
					<polygon style="fill:#91DBFF;" points="232.352,378.835 254.636,383.018 256.577,372.911 233.635,368.121 					"/>
				</g>
			</g>
		</g>
		<g>
			<path style="fill:#ACBEA6;" d="M98.532,239.39l63.04-4.944c18.325-1.437,34.937,10.767,39.043,28.684l9.242,40.33l-65.205,7.642
				c-21.333,2.5-40.549-13.032-42.579-34.414L98.532,239.39z"/>
			
				<linearGradient id="SVGID_00000007392845392909533150000009372619426347409540_" gradientUnits="userSpaceOnUse" x1="110.8513" y1="322.9117" x2="209.1855" y2="205.7054">
				<stop  offset="0" style="stop-color:#ACBEA6;stop-opacity:0"/>
				<stop  offset="0.313" style="stop-color:#A7B9A2;stop-opacity:0.3147"/>
				<stop  offset="0.695" style="stop-color:#99AA95;stop-opacity:0.6989"/>
				<stop  offset="0.9944" style="stop-color:#8A9986"/>
			</linearGradient>
			<path style="fill:url(#SVGID_00000007392845392909533150000009372619426347409540_);" d="M194.201,271.128
				c-4.106-17.917-20.718-30.121-39.043-28.684l-55.919,4.386l2.834,29.857c2.03,21.383,21.246,36.914,42.579,34.414l57.174-6.7
				L194.201,271.128z"/>
		</g>
	</g>
	<g>
		<g>
			<path style="fill:#A3883B;" d="M307.01,223.051h31.209c5.532-4.034,9.065-10.165,9.065-17.034
				c0-12.148-11.045-21.996-24.669-21.996c-13.625,0-24.669,9.848-24.669,21.996C297.945,212.885,301.478,219.017,307.01,223.051z"
				/>
			<g>
				<polygon style="fill:#FFF7D3;" points="355.257,188.431 289.971,188.431 303.21,127.129 342.019,127.129 				"/>
			</g>
			<path style="opacity:0.05;fill:#FFFFFF;" d="M314.288,203.415c-2.452,4.901-7.155,7.516-10.503,5.841
				c-3.349-1.675-4.075-7.007-1.623-11.908c2.452-4.901,7.155-7.516,10.503-5.841C316.014,193.183,316.74,198.514,314.288,203.415z"
				/>
			<polygon style="fill:#856F30;" points="307.01,223.051 338.219,223.051 339.543,227.461 305.686,227.461 			"/>
		</g>
		
			<linearGradient id="SVGID_00000109728406344640924510000009131947541900189070_" gradientUnits="userSpaceOnUse" x1="322.6143" y1="154.32" x2="322.6143" y2="210.935">
			<stop  offset="0" style="stop-color:#FFFFFF"/>
			<stop  offset="0.3629" style="stop-color:#FFFFFF;stop-opacity:0.5"/>
			<stop  offset="1" style="stop-color:#FFFFFF;stop-opacity:0"/>
		</linearGradient>
		<polygon style="fill:url(#SVGID_00000109728406344640924510000009131947541900189070_);" points="289.971,188.431 
			355.257,188.431 367.975,216.567 277.254,216.567 		"/>
	</g>
</g>
<g id="DESIGNED_BY_FREEPIK">
	<g>
		<g id="XMLID_319_">
			<g id="XMLID_338_">
				<path id="XMLID_346_" style="fill:#1C1C1B;" d="M261.442,464.892c-0.49,0.502-0.91,1.054-1.255,1.646l-0.527-0.273
					c-0.076-0.337-0.396-0.569-0.746-0.528c-0.375,0.044-0.643,0.384-0.599,0.759c0.044,0.375,0.384,0.643,0.758,0.599
					c0.074-0.009,0.144-0.029,0.208-0.059l0.511,0.265c-0.284,0.627-0.49,1.289-0.611,1.975l0.845,0.149
					c0.26-1.479,0.962-2.839,2.029-3.932L261.442,464.892z"/>
				<path id="XMLID_345_" style="fill:#1C1C1B;" d="M267.656,462.285c-0.194,0-0.386,0.007-0.577,0.019l-0.083-0.709
					c0.212-0.169,0.335-0.44,0.301-0.73c-0.052-0.445-0.456-0.763-0.901-0.711c-0.445,0.052-0.763,0.455-0.711,0.901
					c0.034,0.288,0.214,0.522,0.458,0.638l0.083,0.707c-0.808,0.132-1.589,0.376-2.332,0.732l0.37,0.774
					c1.058-0.506,2.199-0.762,3.392-0.762c0.562,0,1.124,0.06,1.67,0.178l0.182-0.839
					C268.903,462.352,268.279,462.285,267.656,462.285z"/>
				<path id="XMLID_344_" style="fill:#1C1C1B;" d="M275.133,465.17c0.375-0.046,0.641-0.387,0.595-0.761
					c-0.046-0.375-0.387-0.641-0.761-0.595c-0.35,0.043-0.606,0.344-0.6,0.689l-0.471,0.411c-0.473-0.487-1.007-0.92-1.594-1.29
					l-0.458,0.726c1.284,0.809,2.288,1.955,2.903,3.313l0.782-0.354c-0.284-0.627-0.643-1.214-1.067-1.75l0.455-0.397
					C274.986,465.175,275.059,465.179,275.133,465.17z"/>
				<path id="XMLID_343_" style="fill:#1C1C1B;" d="M267.036,473.845c-0.437,0.026-0.878,0.039-1.31,0.039
					c-0.997,0-1.962-0.069-2.807-0.203c-0.442-0.07-0.958-0.176-1.438-0.331c1.185,2.107,3.476,3.539,6.102,3.539
					c3.233,0,5.959-2.17,6.737-5.1c-0.772,0.509-1.705,0.935-2.784,1.271C270.201,473.478,268.643,473.749,267.036,473.845z"/>
				<path id="XMLID_339_" style="fill:#1C1C1B;" d="M267.656,464.002c-3.796,0-6.884,3.019-6.884,6.73
					c0,0.482,0.052,0.962,0.155,1.428c0.763,0.547,3.064,1.008,6.055,0.828c3.261-0.196,5.998-1.084,7.556-2.444
					c-0.006-0.221-0.023-0.442-0.051-0.659C274.056,466.531,271.12,464.002,267.656,464.002z M265.211,471.38
					c-1.155,0-2.095-0.94-2.095-2.095c0-1.155,0.94-2.095,2.095-2.095c1.155,0,2.095,0.94,2.095,2.095
					C267.306,470.44,266.366,471.38,265.211,471.38z M270.576,470.351c-0.849,0-1.54-0.691-1.54-1.54
					c0-0.849,0.691-1.541,1.54-1.541c0.849,0,1.541,0.691,1.541,1.541C272.116,469.66,271.425,470.351,270.576,470.351z"/>
			</g>
			<path id="XMLID_336_" style="fill:#1C1C1B;" d="M285.779,466.116c-0.334-0.131-0.912-0.35-1.565-0.269
				c-0.624,0.078-0.956,0.386-0.956,1.14v0.981h2.523v1.945h-2.523v6.177h-2.188v-6.177h-1.517v-1.945h1.517v-1.006
				c0-1.902,1.014-3.151,2.908-3.151c0.728,0,1.31,0.138,1.8,0.349L285.779,466.116z"/>
			<path id="XMLID_334_" style="fill:#1C1C1B;" d="M291.104,469.89c-0.2-0.034-0.405-0.052-0.596-0.052
				c-1.014,0-1.71,0.62-1.71,1.827v4.425h-2.188v-8.122h2.12v0.888c0.511-0.763,1.291-1.106,2.288-1.106
				c0.469,0,0.96,0.144,1.239,0.381L291.104,469.89z"/>
			<path id="XMLID_331_" style="fill:#1C1C1B;" d="M299.786,472.017c0,0.251-0.017,0.553-0.042,0.738h-5.758
				c0.235,1.173,1.056,1.685,2.087,1.685c0.704,0,1.467-0.285,2.053-0.779l1.282,1.408c-0.922,0.846-2.095,1.232-3.461,1.232
				c-2.489,0-4.216-1.693-4.216-4.249c0-2.556,1.676-4.3,4.107-4.3C298.177,467.75,299.778,469.485,299.786,472.017z
				 M293.995,471.262h3.595c-0.201-1.039-0.83-1.626-1.768-1.626C294.791,469.636,294.187,470.257,293.995,471.262z"/>
			<path id="XMLID_328_" style="fill:#1C1C1B;" d="M308.453,472.017c0,0.251-0.017,0.553-0.042,0.738h-5.758
				c0.235,1.173,1.056,1.685,2.087,1.685c0.704,0,1.467-0.285,2.053-0.779l1.282,1.408c-0.922,0.846-2.095,1.232-3.461,1.232
				c-2.489,0-4.216-1.693-4.216-4.249c0-2.556,1.676-4.3,4.107-4.3C306.843,467.75,308.444,469.485,308.453,472.017z
				 M302.661,471.262h3.596c-0.201-1.039-0.83-1.626-1.768-1.626C303.457,469.636,302.854,470.257,302.661,471.262z"/>
			<path id="XMLID_325_" style="fill:#1C1C1B;" d="M317.903,472.025c0,2.439-1.693,4.275-3.931,4.275
				c-1.09,0-1.861-0.428-2.389-1.056v4.199h-2.179v-11.474h2.137v0.897c0.528-0.662,1.307-1.115,2.422-1.115
				C316.21,467.75,317.903,469.586,317.903,472.025z M311.475,472.025c0,1.282,0.846,2.238,2.087,2.238
				c1.291,0,2.095-0.997,2.095-2.238c0-1.24-0.805-2.238-2.095-2.238C312.321,469.787,311.475,470.742,311.475,472.025z"/>
			<path id="XMLID_322_" style="fill:#1C1C1B;" d="M321.418,465.311c0,0.788-0.612,1.391-1.4,1.391
				c-0.788,0-1.391-0.603-1.391-1.391c0-0.788,0.604-1.408,1.391-1.408C320.806,463.903,321.418,464.524,321.418,465.311z
				 M321.124,476.09h-2.188v-8.122h2.188V476.09z"/>
			<path id="XMLID_320_" style="fill:#1C1C1B;" d="M324.775,470.86l3.059-2.892h2.682l-3.939,3.822l3.964,4.3h-2.69l-3.076-3.285
				v3.285h-2.188v-12.069h2.188V470.86z"/>
		</g>
		<g>
			<path style="fill:#1C1C1B;" d="M175.729,476.016v-1.194c-0.597,0.813-1.576,1.393-2.704,1.393c-2.09,0-3.566-1.592-3.566-4.196
				c0-2.555,1.46-4.213,3.566-4.213c1.078,0,2.057,0.531,2.704,1.41v-4.263h1.244v11.064H175.729z M175.729,473.843v-3.633
				c-0.448-0.697-1.41-1.294-2.405-1.294c-1.609,0-2.571,1.327-2.571,3.102c0,1.775,0.962,3.085,2.571,3.085
				C174.319,475.104,175.281,474.54,175.729,473.843z"/>
			<path style="fill:#1C1C1B;" d="M178.582,472.002c0-2.322,1.659-4.197,3.948-4.197c2.422,0,3.848,1.891,3.848,4.296v0.316h-6.486
				c0.1,1.509,1.161,2.77,2.886,2.77c0.912,0,1.841-0.365,2.471-1.012l0.597,0.813c-0.796,0.796-1.874,1.227-3.185,1.227
				C180.29,476.215,178.582,474.507,178.582,472.002z M182.513,468.834c-1.709,0-2.555,1.443-2.621,2.67h5.258
				C185.134,470.31,184.337,468.834,182.513,468.834z"/>
			<path style="fill:#1C1C1B;" d="M187.273,474.955l0.647-0.895c0.531,0.614,1.543,1.145,2.637,1.145
				c1.228,0,1.891-0.581,1.891-1.377c0-1.94-4.96-0.746-4.96-3.716c0-1.244,1.078-2.306,2.985-2.306c1.36,0,2.323,0.514,2.969,1.161
				l-0.581,0.863c-0.481-0.581-1.36-1.012-2.389-1.012c-1.095,0-1.775,0.547-1.775,1.261c0,1.758,4.96,0.597,4.96,3.716
				c0,1.344-1.078,2.422-3.151,2.422C189.197,476.215,188.086,475.817,187.273,474.955z"/>
			<path style="fill:#1C1C1B;" d="M195.053,466.031c0-0.464,0.382-0.846,0.829-0.846c0.465,0,0.846,0.381,0.846,0.846
				c0,0.465-0.381,0.829-0.846,0.829C195.434,466.86,195.053,466.495,195.053,466.031z M195.268,476.016v-8.012h1.244v8.012H195.268
				z"/>
			<path style="fill:#1C1C1B;" d="M198.569,478.073l0.63-0.929c0.663,0.796,1.46,1.095,2.604,1.095c1.327,0,2.571-0.647,2.571-2.405
				v-1.145c-0.581,0.813-1.559,1.427-2.687,1.427c-2.09,0-3.566-1.559-3.566-4.147c0-2.571,1.46-4.163,3.566-4.163
				c1.078,0,2.04,0.531,2.687,1.41v-1.211h1.244v7.78c0,2.654-1.858,3.483-3.815,3.483
				C200.443,479.267,199.514,479.002,198.569,478.073z M204.374,473.711v-3.5c-0.432-0.697-1.393-1.294-2.389-1.294
				c-1.609,0-2.571,1.277-2.571,3.052c0,1.758,0.962,3.052,2.571,3.052C202.981,475.021,203.943,474.408,204.374,473.711z"/>
			<path style="fill:#1C1C1B;" d="M213.099,476.016v-5.242c0-1.41-0.713-1.858-1.791-1.858c-0.979,0-1.908,0.597-2.372,1.244v5.855
				h-1.244v-8.012h1.244v1.161c0.564-0.663,1.658-1.36,2.853-1.36c1.675,0,2.555,0.846,2.555,2.588v5.623H213.099z"/>
			<path style="fill:#1C1C1B;" d="M215.952,472.002c0-2.322,1.659-4.197,3.948-4.197c2.422,0,3.848,1.891,3.848,4.296v0.316h-6.486
				c0.099,1.509,1.161,2.77,2.886,2.77c0.912,0,1.841-0.365,2.472-1.012l0.597,0.813c-0.796,0.796-1.874,1.227-3.185,1.227
				C217.66,476.215,215.952,474.507,215.952,472.002z M219.883,468.834c-1.708,0-2.555,1.443-2.621,2.67h5.258
				C222.503,470.31,221.707,468.834,219.883,468.834z"/>
			<path style="fill:#1C1C1B;" d="M231.146,476.016v-1.194c-0.597,0.813-1.576,1.393-2.704,1.393c-2.09,0-3.566-1.592-3.566-4.196
				c0-2.555,1.46-4.213,3.566-4.213c1.078,0,2.057,0.531,2.704,1.41v-4.263h1.244v11.064H231.146z M231.146,473.843v-3.633
				c-0.448-0.697-1.41-1.294-2.405-1.294c-1.609,0-2.571,1.327-2.571,3.102c0,1.775,0.962,3.085,2.571,3.085
				C229.736,475.104,230.697,474.54,231.146,473.843z"/>
			<path style="fill:#1C1C1B;" d="M238.327,476.016v-11.064h1.244v4.263c0.647-0.879,1.609-1.41,2.704-1.41
				c2.09,0,3.566,1.659,3.566,4.213c0,2.604-1.476,4.196-3.566,4.196c-1.128,0-2.107-0.581-2.704-1.393v1.194H238.327z
				 M241.96,475.104c1.626,0,2.588-1.31,2.588-3.085c0-1.775-0.962-3.102-2.588-3.102c-0.979,0-1.957,0.597-2.388,1.294v3.633
				C240.003,474.54,240.981,475.104,241.96,475.104z"/>
			<path style="fill:#1C1C1B;" d="M247.201,478.023c0.182,0.083,0.481,0.133,0.68,0.133c0.547,0,0.912-0.182,1.194-0.846
				l0.531-1.211l-3.351-8.095h1.344l2.671,6.569l2.654-6.569h1.36l-4.014,9.637c-0.481,1.161-1.294,1.609-2.356,1.625
				c-0.265,0-0.68-0.05-0.912-0.116L247.201,478.023z"/>
		</g>
	</g>
</g>
</svg>
